<svg xmlns="http://www.w3.org/2000/svg" version="1.1" viewBox="0 0 500 500" width="500" height="500">
<defs/><!--ITEM: Illustration component 1--><g transform="translate(765.0 1290.0) rotate(-12.456477814452256 -290.0 175.0)  scale(-1.996090416012775 1.9774123017644167)"><svg width="290.568" height="176.999" viewBox="0.0 0.0 290.568 176.999"><path d="m142.566 177c102.7-34.433 148-127.463 148-127.463l-142.766-49.537s-45.306 93.03-147.8 127.464z" fill="#ffb400"/><path d="m168.34 153.037a212.053 212.053 0 0 0 30.809-19.13l-43.9-15.3a220.492 220.492 0 0 1 -32.017 18.526z" fill="#f04e23"/><path d="m153.842 15.505s-13.491 23.358-27.788 39.065l39.467 13.692a240 240 0 0 0 27.587-39.062z" fill="#00acdc"/><g fill="#10294c"><path d="m142.364 164.514c4.028-1.409 7.854-3.02 11.68-4.631l-109.944-38.259c-3.423 1.812-6.847 3.423-10.27 5.235z"/><path d="m206.2 33.829c-1.208 2.014-2.618 4.43-4.43 7.249l64.839 22.553c1.812-2.618 3.222-5.034 4.632-7.048z"/><path d="m140.149 113.368-54.771-18.928-7.853 6.041 53.966 18.726c3.02-2.013 5.839-3.825 8.658-5.839z"/><path d="m184.248 66.047c-1.812 2.215-3.624 4.43-5.437 6.847l63.43 22.15c2.014-2.215 4.027-4.43 5.84-6.645z"/><path d="m82.358 114.375-16.311-5.638c-2.819 2.013-5.839 3.826-8.86 5.638l15.913 5.437c3.016-1.812 6.237-3.625 9.258-5.437z"/><path d="m88.6 125.248 20.338 7.048c3.423-1.611 6.645-3.423 9.867-5.235l-21.345-7.451c-2.819 1.812-5.839 3.826-8.86 5.638z"/><path d="m166.327 101.89-63.833-22.15c-2.215 2.014-4.631 4.229-7.047 6.242l63.228 21.949c2.618-2.013 5.235-4.031 7.652-6.041z"/><path d="m172.77 112.764 37.051 12.887c2.618-2.013 5.035-4.027 7.451-6.041l-37.051-12.887c-2.621 2.014-5.034 4.027-7.451 6.041z"/><path d="m235.6 73.3 19.13 6.645c1.812-2.416 3.624-4.631 5.235-6.846l-19.133-6.649c-1.611 2.215-3.424 4.631-5.232 6.85z"/><path d="m228.347 62.02-32.822-11.478c-1.611 2.215-3.222 4.632-5.034 7.048l32.218 11.276c2.013-2.215 3.826-4.631 5.638-6.846z"/><path d="m160.084 78.331c-2.013 2.215-3.825 4.43-6.04 6.645l73.1 25.371c2.215-2.215 4.43-4.43 6.645-6.443z"/><path d="m147.2 73.9-29-10.069c-2.014 2.215-4.028 4.43-6.243 6.645l29 10.069c2.213-2.416 4.227-4.631 6.243-6.645z"/></g></svg></g><!--ITEM: Illustration component 2--><g transform="translate(512.5 485.0) rotate(0.0 967.5 420.0)  scale(12.837438881185689 12.359848150437008)"><svg width="150.731" height="67.962" viewBox="0.0 0.0 150.731 67.962"><path d="m58.941 2.091c-2.5-.1-3.1 3.5-3.2 5.3a92.121 92.121 0 0 0 -.4 16.6c.2 2 .4 4.9 3.4 4.7s2.2-3.9 2.3-6.3c.2-5 .2-10.7.6-15.1.2-2.3.5-5.2-2.7-5.2z" fill="#00aee0" fill-rule="evenodd"/><path d="m99.108 13.04c-2.1-.9-3.3-.4-4 1-.6 1.4-.2 3.7 3.4 4.8.606 13.352 13.35 13.474 17.4 4.7 1.386-3.234-2.56-5.6-4.6-2.2-1.2 2-2.2 3.2-3.6 3.2-1.4.1-3.5-1-3.6-5.2a13.492 13.492 0 0 0 7.4-2.6c4.5-3.7 4.443-7.506 4-10.5-1.069-7.21-13.518-7.326-16.4 6.8zm9.9-5.5c-1.9-.1-3 2.3-4 6.1 4.692-.782 6.63-5.94 4-6.1z" fill="#10294c" fill-rule="evenodd"/><path d="m104.341 19.81c-.915.916-4.656.214-4.3-.5.1-.3 1.7 0 3.5 0 .9 0 1.1.2.8.5z" fill="#00aee0"/><path d="m40.783 7.386a72.629 72.629 0 0 0 -.7 15c.1 1.8.1 7.1 3.2 6.8 4.5-.409 1.444-8.708 3.3-21.7a43.412 43.412 0 0 0 5.1.1 2.5 2.5 0 0 0 .6-4.9c-4.231-1.293-13.86-1.674-17.8.4-1.4.7-1.6 3.6.1 4.4 2 .7 3.5.2 6.2-.1z" fill="#ffb400" fill-rule="evenodd"/><path d="m42.341 7.31c.3-.1 2.2.2 3.5.2 1.4 0 1.3.1 1.4.1.6.1 0 .6-.5.7-2.854 1.11-5.714-1-4.4-1z" fill="#f04e23"/><path d="m78.881 25.52c-4.128-.295-2.064-5.481-3-15.3-.1-1.1-.4-3.2-2.1-3.1-2.1.1-2.4 3.3-2.6 6.2-.737 11.067 1.324 15.853-2.4 16.3-1.2.2-3-.8-3.2-3.6-.824-10.166-1.573-24.9 8.6-24.9 3.5 0 5.2 2.5 6.3 5a6.966 6.966 0 0 1 11.1-1.4c2.5 2.6 2.5 7.8 2.1 13.1-.3 4.4-.9 11-3.5 11-3.1.1-3.1-3.1-2.8-5.6.464-4.26 1.735-13.555-.8-14.4-1.8-.6-2.7 1-3.4 2.8-1.729 4.612-.268 14.325-4.3 13.9z" fill="#f04e23" fill-rule="evenodd"/><path d="m81.041 10.11c-.4-.1-.1-1-.7-4.1 0-.446-.033-.789.4-.5 1.626 1.084.844 4.782.3 4.6z" fill="#ffb400"/><path d="m9.483 44.186a72.629 72.629 0 0 0 -.7 15c.1 1.8.1 7.1 3.2 6.8 4.5-.409 1.444-8.708 3.3-21.7a43.412 43.412 0 0 0 5.1.1 2.5 2.5 0 0 0 .6-4.9c-4.231-1.293-13.86-1.674-17.8.4-1.4.7-1.6 3.6.1 4.4 1.9.7 3.5.1 6.2-.1z" fill="#f04e23" fill-rule="evenodd"/><path d="m10.941 44.11c.3-.1 2.2.2 3.5.2 4.528 0-1.6 2.3-3.7.2a.24.24 0 0 1 .2-.4z" fill="#ffb400"/><path d="m25.341 44.01c-3.1-.1-4.6 6.9-4.2 11.3 1 11.9 13 12.2 16.7 4.1 3.3-7.3 2-19.2-5.7-19.8-3.8-.3-6 1.7-6.8 4.4zm.9 7.2c-.8 3.1-.4 7.3 2.9 8.2 5.6 1.6 8.2-11.3 3.1-14.7-1.6-1.1-3.1 1-2.4 2.8.5 1.3 2.3 1.1 3.1 2.4 1.3 2.3-.5 5.3-3.6 4a5.161 5.161 0 0 1 -3.1-2.7z" fill="#00aee0" fill-rule="evenodd"/><path d="m26.641 51.71c.2.6-.5.2-.8-.1a4.5 4.5 0 0 1 -1.4-4c0-1.256 1.809 3.709 2.2 4.1z" fill="#10294c"/><path d="m91.564 58.3a39.83 39.83 0 0 1 7.6-2.5c.1 1.1.1 2.1.2 2.9.3 3.1.3 7.1 3.2 6.7 2.1-.3 2.4-3.2 2.3-7.8 0-.9-.1-1.9-.1-2.9 2.2-.7 2.6-1.7 2.6-2.5 0-1.5-.7-2.6-3.2-2.7-1-5.9-3.3-11.4-8-10.9-6.1.6-9 12.8-10 18.2-.7 3.5-1.5 8.8 2 9 3 .3 2.6-3.5 3.4-7.5zm7.2-8.1c-.4-2.7-1.1-4.9-2.5-5-1.2-.1-2.4 3.1-3.3 6.9a30.352 30.352 0 0 1 5.8-1.9z" fill="#00aee0" fill-rule="evenodd"/><path d="m105.541 54.61c0 .1 0 .2-.1.2a4.592 4.592 0 0 1 -3.9 1.1c-1.1-.5.7-.7 1.8-.9a10.26 10.26 0 0 0 1.4-.4c.2-.1.7-.2.8-0z" fill="#10294c"/><path d="m146.141 39.61c-2.5.1-2.8 3-3 4.7-.1 1.1-.3 3.8-.3 7.1-1.7-2.7-2.9-5.3-4.7-8.2-1.2-1.9-1.9-3.6-3.9-4.2-2-.5-3.2.7-3.8 2.5a28.556 28.556 0 0 0 -1 7.7c-.1 1.8-.2 3.7-.2 5.5a26.321 26.321 0 0 0 .3 5.6c.3 1.9.9 4.8 3.2 5.3 2.2.4 2.7-1.8 2.6-4a82.7 82.7 0 0 1 -.2-11.9c1.7 2.5 3.3 5.4 4.6 7.6.7 1.1 1.4 2.4 2.1 3.6a12.424 12.424 0 0 0 2.9 3.9 2.449 2.449 0 0 0 2 .5 2.478 2.478 0 0 0 1.7-2.7c0-2.4-.2-4.7-.3-6.8a93.028 93.028 0 0 1 .4-10.5c.2-2.4.5-5.8-2.4-5.7z" fill="#ffb400" fill-rule="evenodd"/><g fill="#f04e23"><path d="m144.941 55.41c-.2-.2-.9-1.9-1.5-2.9a9.721 9.721 0 0 0 -.7-1.2c-.2-.6.5-.3.8 0a4.83 4.83 0 0 1 1.8 4c-.1.2-.2.4-.4.1z"/><path d="m135.241 49.61c-.1-.3-.8-1.7-1.2-2.8-.5-1.2-.5-1-.5-1.2-.3-.5-.5.2-.5.6a4.223 4.223 0 0 0 1.9 3.6c.1.2.4.1.3-.2z"/><path d="m118.041 56.41a36.016 36.016 0 0 1 2.2 5.6c.9 2.9 1.8 3.7 3.7 3.3 2.3-.6 1.6-4 1-6.5a22.942 22.942 0 0 0 -1.6-4.6 9.51 9.51 0 0 0 3.5-7.6c.3-7.5-5.6-8.8-8.9-8.3-2.8.4-6.1 1.6-7.6 9a45.028 45.028 0 0 0 -.7 14c.3 2.4.8 5.4 3.5 5.1 2.1-.3 1.9-2.9 1.8-5.6a29.288 29.288 0 0 1 0-4.2 16.154 16.154 0 0 0 3.1-.2zm.4-12.5c-1.1 0-2 .9-2.7 4a27.92 27.92 0 0 0 -.4 3.2c3.1.2 5.3-1.6 5.7-3.9.3-1.7-.3-3.3-2.6-3.3z" fill-rule="evenodd"/></g><path d="m123.541 54.11c.1 0 .1.1.1.2-.2.9-1.8 2-3.2 2.2-.2 0-.7.1-.8-.1-.1-.3 1.3-.8 2.6-1.7.3-.2 1-.7 1.3-.6z" fill="#ffb400"/><path d="m50.841 66.01c2.1 1.8 4.1.1 10.8.2 2 0 5.2.4 5.6-2.2.5-3.6-4.1-3.6-7.9-3.4-1.6.1-3.1 1-3.2.2-.2-1 .3-1.7 1-6.3a47.462 47.462 0 0 0 .3-13c-.5-2.8-1.4-4.2-3.7-3.9-1.8.2-2.1 2.3-2 4.6.267 18.652-3.786 21.556-.9 23.8z" fill="#10294c"/><path d="m56.741 61.21c-.2.2-1.7.5-3.7 1.5-1 .5-.3-1 1.4-1.6 1.6-.6 2.9-.2 2.3.1z" fill="#00aee0"/><path d="m82.241 56.51c-2.9-1-3.2 3.8-5.7 3.9-2.4.1-3.7-1.9-4-4.6 9.921 0 13.613-13.781 8.1-16.7-5.9-3.1-11 2.8-12.9 9.9-2.3-1-4.1-1.9-5.3-.1-1.832 2.647 1.591 4.9 4.6 5.8 0 8.564 6.275 12.48 10.9 11 5.4-1.6 6.9-8.3 4.3-9.2zm-4.3-10.1c-.5 1.6-2.5 4.1-5 4.1 1.7-7.1 6.4-9.4 5-4.1z" fill="#ffb400"/><path d="m72.841 56.01c0 .1 0 .2-.1.2-1.233 1.057-4.5-.255-4.5-.9.1-.3 1.5.1 3.1.3.4 0 1.3.1 1.5.4z" fill="#f04e23"/></svg></g><!--ITEM: Illustration component 3--><g transform="translate(737.5 385.0) rotate(-156.75107829969045 -196.25 186.25)  scale(-2.7322594567502474 2.725623051819765)"><svg width="143.654" height="136.666" viewBox="0.0 0.0 143.654 136.666"><path d="m120.5 9.936s-5.11 7.21-14.19 18.28c-43.057-11.59-105.427-7.63-105.427-7.63s10.54-10.4 30-18c0-.03 41.43-4.04 89.617 7.35z" fill="#fff"/><path d="m120.5 9.936s33.39 40 17.72 108.59c-9.76 13.28-17.77 18.14-17.77 18.14 18.98-69.44-14.14-108.45-14.14-108.45 9.083-11.07 14.19-18.28 14.19-18.28z" fill="#fff"/><path d="m106.313 28.216s33.12 39 14.14 108.45c-40.86-11.56-87.33-15.45-87.33-15.45 21.47-70.91-32.24-100.63-32.24-100.63s62.37-3.96 105.43 7.63z" fill="#00aee0"/><g fill="#04294f"><path d="m42.313 112.906a142.192 142.192 0 0 0 1.8-22.87c0-1.9-.2-3.79-.3-5.68a56.33 56.33 0 0 0 -.6-5.65l-.37-2.81-.59-2.77-.56-2.78c-.18-.93-.49-1.82-.73-2.73a86.25 86.25 0 0 0 -8.83-20.78 96.723 96.723 0 0 0 -6.35-9.42 112.8 112.8 0 0 0 -7.47-8.83.5.5 0 0 1 0-.7.508.508 0 0 1 .63 0 69.681 69.681 0 0 1 8.75 7.84 73.047 73.047 0 0 1 7.32 9.29 72.425 72.425 0 0 1 9.66 21.61c.25 1 .57 1.9.75 2.87l.56 2.92.54 2.92.3 2.95a81.867 81.867 0 0 1 .46 11.82l-.42 5.894c-.05 1-.24 1.94-.38 2.92l-.46 2.9-.48 2.89c-.19 1-.45 1.91-.68 2.86-.47 1.89-1 3.78-1.47 5.66a.61.61 0 0 1 -.74.43.6.6 0 0 1 -.44-.67z"/><path d="m96.583 34.416c-20.82-4.12-43.08-5.23-60-5.31a1.41 1.41 0 0 0 -1.16 2.23q1.821 2.51 3.63 5.23a1.441 1.441 0 0 0 1.15.63c17.32.25 39.29 1.62 59.11 6a1.42 1.42 0 0 0 1.57-2c-1.08-2.11-2.19-4.13-3.31-6.05a1.409 1.409 0 0 0 -.99-.73z"/><path d="m93.313 47.946a351.942 351.942 0 0 0 -37.21-4.3 1.431 1.431 0 0 0 -1.45 1.87c.36 1 .7 2.14 1 3.25a1.4 1.4 0 0 0 1.25 1 346.74 346.74 0 0 1 37.3 4.47 1.419 1.419 0 0 0 1.58-1.9c-.46-1.2-.94-2.39-1.43-3.55a1.408 1.408 0 0 0 -1.04-.84z"/><path d="m100.9 117.085c.72-1.033 1.437-2.1 2.136-3.176a1.42 1.42 0 0 0 -1.151-2.187c-12.523-.448-24.013-2.575-36.415-4.376a1.4 1.4 0 0 0 -1.43.719c-.524 1.023-1.094 2.068-1.653 2.971a1.43 1.43 0 0 0 1.029 2.131c12.36 1.835 23.808 4.011 36.292 4.523a1.408 1.408 0 0 0 1.192-.605z"/><path d="m142.613 62.506a131.5 131.5 0 0 0 -6.64-27.75 117.413 117.413 0 0 0 -5.7-13.16c-1.09-2.13-2.25-4.24-3.51-6.3q-.93-1.54-1.95-3.06c-.7-1-1.36-2-2.21-3a2.5 2.5 0 0 0 -1.43-.9c-7.4-1.7-14.83-3.32-22.34-4.43s-15-2.08-22.59-2.73-15.15-1-22.743-1.13-15.14 0-22.86.62a2.659 2.659 0 0 0 -.78.18l-3.76 1.52c-1.24.54-2.49 1.06-3.72 1.62-2.47 1.11-4.93 2.27-7.34 3.53s-4.8 2.57-7.13 4c-1.17.73-2.32 1.47-3.47 2.26-.57.39-1.13.8-1.7 1.22s-1.09.81-1.75 1.37a3 3 0 0 0 2 5.23c8.56-.23 17.24-.17 25.86.06s17.26.67 25.86 1.33 17.17 1.6 25.68 2.86q6.39 1 12.71 2.17 5.921 1.149 11.76 2.64c.5.59 1 1.26 1.51 1.9.66.89 1.31 1.8 1.94 2.73 1.26 1.85 2.42 3.78 3.52 5.75a93.958 93.958 0 0 1 5.74 12.29 112.307 112.307 0 0 1 6.5 26.43c.54 4.53.84 9.08.93 13.65a121.013 121.013 0 0 1 -.51 13.72 167.064 167.064 0 0 1 -4.7 27.12 1.74 1.74 0 0 0 3.35.91 160.844 160.844 0 0 0 5.45-27.64c.54-4.68.73-9.4.81-14.13a121.839 121.839 0 0 0 -.69-14.16 116.4 116.4 0 0 0 -6.4-27.71 101.812 101.812 0 0 0 -5.89-13c-1.14-2.1-2.36-4.17-3.68-6.17q-.99-1.5-2.07-3a35.646 35.646 0 0 0 -2.36-2.93 2.482 2.482 0 0 0 -1.21-.75h-.07c-4.25-1.16-8.54-2.17-12.84-3.07s-8.62-1.63-13-2.31c-8.66-1.31-17.35-2.28-26.06-3s-17.43-1.2-26.15-1.47q-8.1-.24-16.19-.26 2.421-1.431 4.92-2.75c2.29-1.21 4.65-2.33 7-3.41 1.19-.54 2.39-1 3.59-1.56l3.22-1.32c7.15-.58 14.54-.73 21.83-.65 7.45.08 14.9.4 22.33 1s14.84 1.43 22.2 2.6c7.07 1 14.07 2.43 21 3.94.45.6.93 1.26 1.37 1.9.63.92 1.25 1.86 1.85 2.82 1.2 1.92 2.32 3.9 3.38 5.92a109.833 109.833 0 0 1 5.58 12.49 127.9 127.9 0 0 1 6.71 26.62 143.042 143.042 0 0 1 1.23 27.53 174.306 174.306 0 0 1 -3.63 27.45 1.81 1.81 0 0 0 3.52.81 167.2 167.2 0 0 0 4.36-28 148.353 148.353 0 0 0 -.637-28.44z"/></g></svg></g><!--ITEM: Illustration component 4--><g transform="translate(1962.5 1297.5) rotate(-9.326557707436939 427.5 230.0)  scale(2.1140708102454546 2.111224831675716)"><svg width="404.433" height="217.883" viewBox="0.0 0.0 404.433 217.883"><path d="m129.618 217.048-126.686-76.81c-1.71-1.029-2.767-2.87-2.793-4.865l-.139-10.577c-.059-4.52 4.867-7.347 8.74-5.017l126.686 76.81c1.71 1.029 2.767 2.87 2.793 4.865l.139 10.577c.059 4.52-4.867 7.348-8.74 5.017z" fill="#04294f"/><path d="m370.753 159.241-230.265 47.755-136.236-81.548c-3.737-2.237-2.664-7.917 1.631-8.637l236.087-39.578z" fill="#00aee0"/><path d="m169.857 111.941-41.126 6.474c-.729.115-1.475-.024-2.113-.394l-14.471-8.374c-2.626-1.519-1.885-5.495 1.112-5.967l41.126-6.474c.729-.115 1.475.024 2.113.394l14.471 8.374c2.625 1.519 1.884 5.495-1.112 5.967z" fill="#04294f"/><path d="m197.589 162.056-74.699 13.097c-.956.168-1.94-.003-2.783-.483l-52.759-30.005c-3.4-1.933-2.51-7.061 1.342-7.737l74.699-13.097c.956-.168 1.94.003 2.783.483l52.759 30.005c3.4 1.934 2.511 7.062-1.342 7.737z" fill="#04294f"/><path d="m129.7 194.356-3.934-.727c2.156-11.675 5.891-30.913 9.503-49.518 3.611-18.596 7.344-37.825 9.497-49.482l3.934.727c-2.156 11.675-5.891 30.913-9.503 49.518-3.611 18.595-7.345 37.825-9.497 49.482z" fill="#00aee0"/><path d="m357.216 169.182-203.575 44.869c-14.33 3.065-27.153-9.465-24.418-23.862l24.416-128.553c1.539-8.101 7.782-14.49 15.845-16.215l210.16-44.956c14.33-3.065 27.153 9.465 24.418 23.862l-31.002 128.64c-1.538 8.101-7.781 14.491-15.844 16.215z" fill="#04294f"/><path d="m282.59 108.175c.904-4.422 3.703-8.754 7.396-12.037-3.493-4.053-9.33-5.978-16.536-4.72-13.79 2.407-27.019 15.417-29.417 28.814-2.354 13.15 6.674 21.599 20.04 19.107 10.274-1.916 20.293-9.761 25.591-19.234-5.335-.917-8.38-5.538-7.074-11.93z" fill="#f04e23"/></svg></g><!--ITEM: Illustration component 5--><g transform="translate(1337.5 162.5) rotate(0.0 25.0 25.0)  scale(3.9497590646970533 3.951007506914263)"><svg width="12.659" height="12.655" viewBox="0.0 0.0 12.659 12.655"><path d="m9.374 3.77c-.15-.05-.3-.08-.46-.12s0-.14-.05-.21c-.327-1.087-.852-2.104-1.55-3-.053-.073-.117-.137-.19-.19-.497-.395-1.221-.313-1.616.184-.001.002-.003.004-.004.006-.698.894-1.22 1.912-1.54 3-.05.14-.08.27-.12.4s-.27.07-.4.12c-1.089.317-2.108.839-3 1.54-.073.053-.137.117-.19.19-.396.489-.32 1.207.169 1.603.007.006.014.011.021.017.894.7 1.912 1.225 3 1.55.071.015.141.035.21.06 0 .15.07.3.12.45.361 1.149 1.016 2.183 1.9 3 .416.38 1.054.38 1.47 0 .884-.817 1.539-1.851 1.9-3 0-.09 0-.17.07-.26l.26-.07c1.149-.361 2.183-1.016 3-1.9.38-.416.38-1.054 0-1.47-.82-.881-1.853-1.535-3-1.9z" fill="rgb(255,180,0)"/></svg></g><!--ITEM: Illustration component 6--><g transform="translate(1177.5 1570.0) rotate(44.838184144349725 122.5 186.25)  scale(0.6364578651904308 0.6444112675958875)"><svg width="384.943" height="578.047" viewBox="0.0 0.0 384.943 578.047"><g fill="#f04e23"><path d="m311 384.712c21.629 65.964 58.874 125.708 58.874 125.708l-102.831 33.717s-32.814-55.68-54.043-120.425c-19.852-60.544-28.211-130.434-28.211-130.434l102.831-33.718s4.006 66.065 23.38 125.152z"/><path d="m73.663 384.712c-21.629 65.964-58.874 125.708-58.874 125.708l102.831 33.717s32.814-55.68 54.043-120.425c19.852-60.544 28.211-130.434 28.211-130.434l-102.83-33.718s-4.007 66.065-23.381 125.152z"/><path d="m21.515 500.341c-.421-.016-.812.211-.996.59-2.301 4.746-10.738 15.263-15.519 25.781-2.038 4.483-4 8-5 10 0 1 .071 3.126 1.826 2.749 0 0 19.227-6.109 36.174-9.749 12.739-2.736 24.417-3.265 24.417-3.265.452-.097.915.106 1.15.504 0 0 7.922 10.429 13.433 19.761 7.14 12.091 11.296 29.807 11.296 29.807.357.604 1.188.709 1.684.213 0 0 12.021-11.021 18.021-20.021 5-6 9.629-12.629 9.629-12.629.234-.234.347-.564.306-.892l-4.822-38.573c-.065-.522-.5-.92-1.026-.94z"/><path d="m363.428 501.341c.421-.016.812.211.996.59 2.301 4.746 10.738 15.264 15.519 25.781 2.038 4.483 4 8 5 10 0 1-.071 3.126-1.826 2.749 0 0-19.227-6.109-36.174-9.749-12.739-2.736-24.417-3.265-24.417-3.265-.452-.097-.915.106-1.15.504 0 0-7.922 10.429-13.433 19.761-7.14 12.091-11.296 29.807-11.296 29.807-.357.604-1.188.709-1.684.213 0 0-12.021-11.021-18.021-20.021-5-6-9.629-12.629-9.629-12.629-.234-.234-1.356-3.043-1.314-3.371l5.83-36.094c.065-.522.5-.92 1.026-.94z"/><path d="m352.393 166.733c2.607 18.978-.393 37.978-12.154 53.586-.631 1.851-1.294 3.688-1.989 5.508-1.389 3.642-2.904 7.221-4.539 10.734-.818 1.756-1.665 3.495-2.542 5.217-4.169 19.934-18.169 34.934-34.479 45.741-1.399 1.306-2.822 2.587-4.266 3.844-7.222 6.283-14.997 11.946-23.242 16.907-1.649.992-3.317 1.956-5.003 2.892-13.178 16.55-35.178 20.55-55.37 18.767-1.983.294-3.978.552-5.983.774-23.825.009-50.825 7.009-71.433-7.752-1.851-.631-3.688-1.294-5.508-1.989-10.925-4.167-21.291-9.466-30.956-15.752-1.611-1.048-3.202-2.123-4.78-3.101-21.149-6.397-36.149-25.397-43.647-45.325-1.048-1.611-2.068-3.241-3.06-4.89-2.976-4.947-5.7-10.064-8.153-15.333-.818-1.756-1.605-3.529-2.362-5.318-15.927-25.531-24.927-59.531-11.143-88.34.294-1.983.623-3.955.987-5.914 1.12-6.033 2.57-11.95 4.329-17.732.586-1.927 1.177-3.824 1.638-5.653.262-26.892 17.262-51.892 38.262-66.892 33-23 65-57 108.03-43.732 1.045-.059 2.092-.109 3.142-.149 2.1-.079 4.209-.119 6.329-.119 1.807 0 3.607.029 5.399.087 23.1-.087 46.1 1.913 65.263 15.821 1.529.729 3.045 1.48 4.548 2.254s2.992 1.57 4.467 2.389c1.686.935 3.354 1.899 5.007 2.862 11.815 2.587 19.815 11.587 28.815 18.587 11 11 17 24 30 34 15 13 17 33 17.035 52.436.433 1.934.831 3.881 1.195 5.841.364 1.959.693 3.931.987 5.914s.554 3.977.788 5.98c.996 4.828 4.996 8.828 4.369 14.58.052 1.096.05 2.182.019 3.27z"/></g><path d="m94.542 307.214c.28.366.462.787.793 1.118.369.369.859.589 1.296.861.631.392 1.238.818 1.845 1.246 1.336.94 2.728 1.907 3.979 2.886 2.496 1.954 4.993 3.849 7.509 5.945 2.543 2.119 4.879 3.906 7.836 6.07 2.554 1.869 5.161 3.669 7.859 5.325 5.368 3.295 11.292 5.999 17.458 7.378 7.199 1.61 14.37 1.198 21.535-.398 3.848-.857 7.729-1.944 11.466-3.202 1.005-.338 2.011-.693 3.003-1.068 1.143-.433 2.069-1.067 3.161-1.573.86-.398 1.737-.824 2.535-1.339.987-.637 1.796-1.506 2.718-2.225 1.712-1.336.185-3.99-1.671-4.034-.93-.022-1.86-.21-2.789-.174-.949.038-1.952.195-2.885.343-.321.051-.644.131-.967.171-1.258.156.408.093-.813.008-1.1-.076-2.468.476-3.546.741-3.467.854-6.882 1.91-10.35 2.761-1.563.384-3.13.756-4.71 1.068-.788.156-1.579.287-2.371.419-1.534.255.879-.067-.669.09-.558.057-1.116.116-1.676.157-1.567.116-3.139.138-4.707.056-.682-.036-1.358-.108-2.039-.164-1.341-.109.935.171-.392-.044-.401-.065-.802-.127-1.202-.2-2.932-.534-5.799-1.395-8.571-2.485.044.017-1.199-.483-.595-.235.605.249-.633-.277-.589-.258-.628-.279-1.251-.569-1.87-.868-1.434-.693-2.853-1.426-4.251-2.188-5.383-2.935-10.299-6.529-15.383-9.929-2.882-1.927-5.639-4.099-8.631-5.854-1.651-.968-3.387-1.86-5.175-2.535-.822-.311-1.651-.586-2.499-.819-.421-.116-.855-.256-1.284-.339-.779-.15-1.358.033-2.098.19-1.218.258-2.071 2.039-1.26 3.098z" fill="#04294f"/><path d="m200.713 326.554c1.45.007 3.055.338 4.491.635 1.654.342 3.324.723 4.952 1.176 3.192.887 6.272 2.145 9.378 3.286 6.413 2.358 13.058 4.527 19.986 3.683 14.279-1.741 24.47-12.804 34.379-22.153 2.61-2.462 5.335-4.885 8.047-6.798 1.536-1.083 3.201-2.26 4.611-3.299 1.547-1.14 2.926-2.42 4.431-3.604 1.192-.938.152-2.867-1.188-2.867-1.665-.001-3.306-.012-4.917.47-1.807.541-3.578 1.262-5.189 2.247-2.911 1.779-5.61 3.996-8.186 6.223-5.095 4.405-9.655 9.391-14.826 13.711-4.659 3.892-10.133 7.388-16.137 8.774-1.624.375-2.513.494-4.248.534-.801.018-1.602-.003-2.401-.058-.399-.027-.796-.066-1.193-.107-.427-.045-.466-.055-1.072-.158-3.203-.548-6.331-1.476-9.426-2.448-3.484-1.094-6.963-2.182-10.567-2.818-1.937-.342-3.841-.59-5.806-.443-.97.072-1.938.196-2.897.359-.915.156-1.72.576-2.603.855-1.509.476-1.267 2.792.381 2.8z" fill="#04294f"/><circle cx="184.5" cy="167.212" fill="#ffb400" r="136.5"/><path d="m184.5 275.212c-59.551 0-108-48.449-108-108s48.449-108 108-108c59.552 0 108 48.449 108 108s-48.448 108-108 108zm0-209c-55.691 0-101 45.309-101 101s45.309 101 101 101 101-45.309 101-101-45.309-101-101-101z" fill="#f04e23"/><path d="m158.952 157.153c11.246-4.389 19.674-13.909 26.103-23.854 6.047-9.356 12.025-21.355 10.117-32.748-1.181-7.051-10.589-6.647-13.925-1.82-2.577 3.729-3.614 8.066-5.423 12.162-1.982 4.486-4.134 8.911-6.69 13.1-5.147 8.438-12.223 15.542-17.19 24.045-2.52 4.315 1.764 11.161 7.008 9.115z" fill="#f04e23"/><path d="m181.777 99.451c-3.34 4.685-3.3 10.206-3.569 15.74-.289 5.946-.521 11.87-.463 17.823.111 11.519.223 23.038.334 34.558.108 11.209.35 22.372.873 33.57.282 6.043.536 12.065 1.475 18.052.908 5.783 2.956 11.056 4.647 16.578 1.13 3.691 6.641 3.887 7.684 0 1.415-5.276 3.089-10.307 3.966-15.763.947-5.891.896-11.934.964-17.879.132-11.536-.003-23.025-.297-34.558-.285-11.19-.571-22.38-.856-33.57-.152-5.963-.552-11.871-1.037-17.816-.474-5.804-.428-11.922-4.102-16.735-2.635-3.453-7.016-3.652-9.619 0z" fill="#f04e23"/><path d="m77.75 120.06c1.915-2.025 3.84-3.101 5.429-5.507 1.293-1.958 2.514-3.969 3.78-5.946 2.551-3.984 5.345-7.801 8.235-11.546 6.006-7.784 13.321-14.84 21.432-20.399 8.819-6.045 18.296-10.81 28.559-13.847 10.722-3.173 21.714-4.854 32.125-8.957 3.596-1.417 5.804-7.507 1.241-9.496-23.172-10.099-52.449 1.582-71.644 15.673-9.602 7.049-17.895 15.237-25.075 24.739-3.488 4.617-6.384 9.521-8.835 14.764-1.176 2.515-2.262 5.087-3.145 7.72-1.146 3.418-.674 5.789-.671 9.251.001 4.257 5.545 6.749 8.569 3.551z" fill="#fff"/><path d="m57.679 172.419c-3.647 8.715-2.795 18.519-1.211 27.649 1.543 8.894 5.465 17.938 13.656 22.495 2.461 1.369 6.537.298 7.058-2.871 1.35-8.219-.744-15.731-2.836-23.639-2.074-7.841-2.895-15.969-5.489-23.635-1.957-5.782-9.013-5.173-11.178.001z" fill="#fff"/><path d="m273.619 161.632c-4.896 7.073-6.412 14.928-9.417 22.868-2.856 7.547-6.699 14.882-11.21 21.569-4.359 6.462-9.659 12.46-15.244 17.88-5.678 5.51-13.638 10.863-16.906 18.286-.902 2.049-.348 4.891 2.218 5.451 9.122 1.994 18.219-3.681 25.157-8.965 8.237-6.273 14.902-13.913 20.538-22.581 5.268-8.101 9.467-16.975 12.028-26.302 2.639-9.612 4.243-19.067-.485-28.206-1.43-2.762-5.13-2.237-6.679 0z" fill="#fff"/></svg></g><!--ITEM: Illustration component 7--><g transform="translate(1542.5 162.5) rotate(0.0 92.5 92.5)  scale(2.621770616328671 2.6229229285997846)"><svg width="70.563" height="70.532" viewBox="0.0 0.0 70.563 70.532"><path d="m69.494 33.95a68.907 68.907 0 0 0 -17.029-4.005 109.264 109.264 0 0 0 -10.937-.732c-.194-3.574-.474-7.147-.883-10.764a103 103 0 0 0 -3.272-17.008 1.961 1.961 0 0 0 -1.357-1.357 1.981 1.981 0 0 0 -2.467 1.327l-.008.03a103 103 0 0 0 -3.273 17.008c-.409 3.638-.71 7.3-.883 10.936-3.638.173-7.3.474-10.936.883a103 103 0 0 0 -17.008 3.273 2.151 2.151 0 0 0 -1.357 1.359 1.98 1.98 0 0 0 1.327 2.467l.03.009a103 103 0 0 0 17.008 3.272c3.574.409 7.147.689 10.764.883a109.264 109.264 0 0 0 .732 10.937 68.907 68.907 0 0 0 4.005 17.026 1.633 1.633 0 0 0 .925.926 1.679 1.679 0 0 0 2.153-.926 70.8 70.8 0 0 0 4.005-17.029c.43-3.574.624-7.148.71-10.765a91.1 91.1 0 0 0 10.765-.71 70.8 70.8 0 0 0 17.029-4.005 1.7 1.7 0 0 0 0-3.121z" fill="#ffb400"/></svg></g><!--ITEM: Illustration component 8--><g transform="translate(285.0 992.5) rotate(0.0 76.25 76.25)  scale(2.161189291838499 2.1621391708727953)"><svg width="70.563" height="70.532" viewBox="0.0 0.0 70.563 70.532"><path d="m69.494 33.95a68.907 68.907 0 0 0 -17.029-4.005 109.264 109.264 0 0 0 -10.937-.732c-.194-3.574-.474-7.147-.883-10.764a103 103 0 0 0 -3.272-17.008 1.961 1.961 0 0 0 -1.357-1.357 1.981 1.981 0 0 0 -2.467 1.327l-.008.03a103 103 0 0 0 -3.273 17.008c-.409 3.638-.71 7.3-.883 10.936-3.638.173-7.3.474-10.936.883a103 103 0 0 0 -17.008 3.273 2.151 2.151 0 0 0 -1.357 1.359 1.98 1.98 0 0 0 1.327 2.467l.03.009a103 103 0 0 0 17.008 3.272c3.574.409 7.147.689 10.764.883a109.264 109.264 0 0 0 .732 10.937 68.907 68.907 0 0 0 4.005 17.026 1.633 1.633 0 0 0 .925.926 1.679 1.679 0 0 0 2.153-.926 70.8 70.8 0 0 0 4.005-17.029c.43-3.574.624-7.148.71-10.765a91.1 91.1 0 0 0 10.765-.71 70.8 70.8 0 0 0 17.029-4.005 1.7 1.7 0 0 0 0-3.121z" fill="#ffb400"/></svg></g><!--ITEM: Illustration component 9--><g transform="translate(2562.5 955.0) rotate(0.0 57.5 57.5)  scale(1.6297493020421467 1.630465604264731)"><svg width="70.563" height="70.532" viewBox="0.0 0.0 70.563 70.532"><path d="m69.494 33.95a68.907 68.907 0 0 0 -17.029-4.005 109.264 109.264 0 0 0 -10.937-.732c-.194-3.574-.474-7.147-.883-10.764a103 103 0 0 0 -3.272-17.008 1.961 1.961 0 0 0 -1.357-1.357 1.981 1.981 0 0 0 -2.467 1.327l-.008.03a103 103 0 0 0 -3.273 17.008c-.409 3.638-.71 7.3-.883 10.936-3.638.173-7.3.474-10.936.883a103 103 0 0 0 -17.008 3.273 2.151 2.151 0 0 0 -1.357 1.359 1.98 1.98 0 0 0 1.327 2.467l.03.009a103 103 0 0 0 17.008 3.272c3.574.409 7.147.689 10.764.883a109.264 109.264 0 0 0 .732 10.937 68.907 68.907 0 0 0 4.005 17.026 1.633 1.633 0 0 0 .925.926 1.679 1.679 0 0 0 2.153-.926 70.8 70.8 0 0 0 4.005-17.029c.43-3.574.624-7.148.71-10.765a91.1 91.1 0 0 0 10.765-.71 70.8 70.8 0 0 0 17.029-4.005 1.7 1.7 0 0 0 0-3.121z" fill="#ffb400"/></svg></g><!--ITEM: Illustration component 10--><g transform="translate(337.5 312.5) rotate(0.0 25.0 25.0)  scale(3.9497590646970533 3.951007506914263)"><svg width="12.659" height="12.655" viewBox="0.0 0.0 12.659 12.655"><path d="m9.374 3.77c-.15-.05-.3-.08-.46-.12s0-.14-.05-.21c-.327-1.087-.852-2.104-1.55-3-.053-.073-.117-.137-.19-.19-.497-.395-1.221-.313-1.616.184-.001.002-.003.004-.004.006-.698.894-1.22 1.912-1.54 3-.05.14-.08.27-.12.4s-.27.07-.4.12c-1.089.317-2.108.839-3 1.54-.073.053-.137.117-.19.19-.396.489-.32 1.207.169 1.603.007.006.014.011.021.017.894.7 1.912 1.225 3 1.55.071.015.141.035.21.06 0 .15.07.3.12.45.361 1.149 1.016 2.183 1.9 3 .416.38 1.054.38 1.47 0 .884-.817 1.539-1.851 1.9-3 0-.09 0-.17.07-.26l.26-.07c1.149-.361 2.183-1.016 3-1.9.38-.416.38-1.054 0-1.47-.82-.881-1.853-1.535-3-1.9z" fill="rgb(255,180,0)"/></svg></g><!--ITEM: Illustration component 11--><g transform="translate(890.0 285.0) rotate(0.0 52.5 52.5)  scale(1.488031971429786 1.4886859865025805)"><svg width="70.563" height="70.532" viewBox="0.0 0.0 70.563 70.532"><path d="m69.494 33.95a68.907 68.907 0 0 0 -17.029-4.005 109.264 109.264 0 0 0 -10.937-.732c-.194-3.574-.474-7.147-.883-10.764a103 103 0 0 0 -3.272-17.008 1.961 1.961 0 0 0 -1.357-1.357 1.981 1.981 0 0 0 -2.467 1.327l-.008.03a103 103 0 0 0 -3.273 17.008c-.409 3.638-.71 7.3-.883 10.936-3.638.173-7.3.474-10.936.883a103 103 0 0 0 -17.008 3.273 2.151 2.151 0 0 0 -1.357 1.359 1.98 1.98 0 0 0 1.327 2.467l.03.009a103 103 0 0 0 17.008 3.272c3.574.409 7.147.689 10.764.883a109.264 109.264 0 0 0 .732 10.937 68.907 68.907 0 0 0 4.005 17.026 1.633 1.633 0 0 0 .925.926 1.679 1.679 0 0 0 2.153-.926 70.8 70.8 0 0 0 4.005-17.029c.43-3.574.624-7.148.71-10.765a91.1 91.1 0 0 0 10.765-.71 70.8 70.8 0 0 0 17.029-4.005 1.7 1.7 0 0 0 0-3.121z" fill="#ffb400"/></svg></g><!--ITEM: Illustration component 12--><g transform="translate(1842.5 1465.0) rotate(0.0 30.0 30.0)  scale(4.739710877636464 4.741209008297116)"><svg width="12.659" height="12.655" viewBox="0.0 0.0 12.659 12.655"><path d="m9.374 3.77c-.15-.05-.3-.08-.46-.12s0-.14-.05-.21c-.327-1.087-.852-2.104-1.55-3-.053-.073-.117-.137-.19-.19-.497-.395-1.221-.313-1.616.184-.001.002-.003.004-.004.006-.698.894-1.22 1.912-1.54 3-.05.14-.08.27-.12.4s-.27.07-.4.12c-1.089.317-2.108.839-3 1.54-.073.053-.137.117-.19.19-.396.489-.32 1.207.169 1.603.007.006.014.011.021.017.894.7 1.912 1.225 3 1.55.071.015.141.035.21.06 0 .15.07.3.12.45.361 1.149 1.016 2.183 1.9 3 .416.38 1.054.38 1.47 0 .884-.817 1.539-1.851 1.9-3 0-.09 0-.17.07-.26l.26-.07c1.149-.361 2.183-1.016 3-1.9.38-.416.38-1.054 0-1.47-.82-.881-1.853-1.535-3-1.9z" fill="rgb(255,180,0)"/></svg></g><!--ITEM: Illustration component 13--><g transform="translate(1612.5 1665.0) rotate(0.0 57.5 57.5)  scale(1.6297493020421467 1.630465604264731)"><svg width="70.563" height="70.532" viewBox="0.0 0.0 70.563 70.532"><path d="m69.494 33.95a68.907 68.907 0 0 0 -17.029-4.005 109.264 109.264 0 0 0 -10.937-.732c-.194-3.574-.474-7.147-.883-10.764a103 103 0 0 0 -3.272-17.008 1.961 1.961 0 0 0 -1.357-1.357 1.981 1.981 0 0 0 -2.467 1.327l-.008.03a103 103 0 0 0 -3.273 17.008c-.409 3.638-.71 7.3-.883 10.936-3.638.173-7.3.474-10.936.883a103 103 0 0 0 -17.008 3.273 2.151 2.151 0 0 0 -1.357 1.359 1.98 1.98 0 0 0 1.327 2.467l.03.009a103 103 0 0 0 17.008 3.272c3.574.409 7.147.689 10.764.883a109.264 109.264 0 0 0 .732 10.937 68.907 68.907 0 0 0 4.005 17.026 1.633 1.633 0 0 0 .925.926 1.679 1.679 0 0 0 2.153-.926 70.8 70.8 0 0 0 4.005-17.029c.43-3.574.624-7.148.71-10.765a91.1 91.1 0 0 0 10.765-.71 70.8 70.8 0 0 0 17.029-4.005 1.7 1.7 0 0 0 0-3.121z" fill="#ffb400"/></svg></g><!--ITEM: Illustration component 14--><g transform="translate(205.0 907.5) rotate(0.0 25.0 25.0)  scale(3.9497590646970533 3.951007506914263)"><svg width="12.659" height="12.655" viewBox="0.0 0.0 12.659 12.655"><path d="m9.374 3.77c-.15-.05-.3-.08-.46-.12s0-.14-.05-.21c-.327-1.087-.852-2.104-1.55-3-.053-.073-.117-.137-.19-.19-.497-.395-1.221-.313-1.616.184-.001.002-.003.004-.004.006-.698.894-1.22 1.912-1.54 3-.05.14-.08.27-.12.4s-.27.07-.4.12c-1.089.317-2.108.839-3 1.54-.073.053-.137.117-.19.19-.396.489-.32 1.207.169 1.603.007.006.014.011.021.017.894.7 1.912 1.225 3 1.55.071.015.141.035.21.06 0 .15.07.3.12.45.361 1.149 1.016 2.183 1.9 3 .416.38 1.054.38 1.47 0 .884-.817 1.539-1.851 1.9-3 0-.09 0-.17.07-.26l.26-.07c1.149-.361 2.183-1.016 3-1.9.38-.416.38-1.054 0-1.47-.82-.881-1.853-1.535-3-1.9z" fill="rgb(255,180,0)"/></svg></g><!--ITEM: Illustration component 15--><g transform="translate(992.5 1592.5) rotate(0.0 -25.0 25.0)  scale(-3.9497590646970533 3.951007506914263)"><svg width="12.659" height="12.655" viewBox="0.0 0.0 12.659 12.655"><path d="m9.374 3.77c-.15-.05-.3-.08-.46-.12s0-.14-.05-.21c-.327-1.087-.852-2.104-1.55-3-.053-.073-.117-.137-.19-.19-.497-.395-1.221-.313-1.616.184-.001.002-.003.004-.004.006-.698.894-1.22 1.912-1.54 3-.05.14-.08.27-.12.4s-.27.07-.4.12c-1.089.317-2.108.839-3 1.54-.073.053-.137.117-.19.19-.396.489-.32 1.207.169 1.603.007.006.014.011.021.017.894.7 1.912 1.225 3 1.55.071.015.141.035.21.06 0 .15.07.3.12.45.361 1.149 1.016 2.183 1.9 3 .416.38 1.054.38 1.47 0 .884-.817 1.539-1.851 1.9-3 0-.09 0-.17.07-.26l.26-.07c1.149-.361 2.183-1.016 3-1.9.38-.416.38-1.054 0-1.47-.82-.881-1.853-1.535-3-1.9z" fill="rgb(255,180,0)"/></svg></g><!--ITEM: Illustration component 16--><g transform="translate(2617.5 225.0) rotate(0.0 30.0 30.0)  scale(4.739710877636464 4.741209008297116)"><svg width="12.659" height="12.655" viewBox="0.0 0.0 12.659 12.655"><path d="m9.374 3.77c-.15-.05-.3-.08-.46-.12s0-.14-.05-.21c-.327-1.087-.852-2.104-1.55-3-.053-.073-.117-.137-.19-.19-.497-.395-1.221-.313-1.616.184-.001.002-.003.004-.004.006-.698.894-1.22 1.912-1.54 3-.05.14-.08.27-.12.4s-.27.07-.4.12c-1.089.317-2.108.839-3 1.54-.073.053-.137.117-.19.19-.396.489-.32 1.207.169 1.603.007.006.014.011.021.017.894.7 1.912 1.225 3 1.55.071.015.141.035.21.06 0 .15.07.3.12.45.361 1.149 1.016 2.183 1.9 3 .416.38 1.054.38 1.47 0 .884-.817 1.539-1.851 1.9-3 0-.09 0-.17.07-.26l.26-.07c1.149-.361 2.183-1.016 3-1.9.38-.416.38-1.054 0-1.47-.82-.881-1.853-1.535-3-1.9z" fill="rgb(255,180,0)"/></svg></g><!--ITEM: Illustration component 17--><g transform="translate(2130.0 397.5) rotate(14.467380875933534 261.25 201.25)  scale(2.6078189649579007 2.617715920915713)"><svg width="200.359" height="153.76" viewBox="0.0 0.0 200.359 153.76"><path d="m186.79 49.49c.33-1.48.63-3 .89-4.49a.665.665 0 0 1 .07-.36 58.918 58.918 0 0 0 -4.5-5.53c.41-1.89.79-3.79 1.12-5.71 0 0-27-38.05-68.23-16.61a11.53 11.53 0 0 1 -2.95-.55 16.432 16.432 0 0 1 -2.88-1.17s-13.37-17.72-54.44-14.73c-28.6 67.26-46.59 68.9-46.59 68.9a97.345 97.345 0 0 1 11.16 1.11c-6.16 5.83-9.54 6.15-9.54 6.15 1.83.08 3.6.2 5.32.36s3.33.33 4.92.55c-6.1 5.37-9.56 5.89-9.56 5.89 3.68.16 7.13.45 10.38.85 34.71 4.21 45.83 20.42 46.19 21a24.835 24.835 0 0 0 7.66 2.14c.6-.33 1.19-.64 1.78-.93 38.53-18.88 68.5 27.82 68.5 27.82s35.75-33.57 44.36-77.75c.13-.69.26-1.37.38-2.05.01.03-1.41-1.95-4.04-4.89z" fill="#ffb400"/><path d="m187.68 45c-.26 1.51-.56 3-.89 4.49a56.448 56.448 0 0 1 4 4.92c-.12.68-.25 1.36-.38 2.05-8.56 44.18-44.31 77.78-44.31 77.78s-30-46.7-68.5-27.82c-.59.29-1.18.6-1.78.93a24.835 24.835 0 0 1 -7.66-2.14c-.36-.55-11.48-16.76-46.19-21-3.25-.4-6.7-.69-10.38-.85 0 0 3.46-.52 9.56-5.89-1.59-.22-3.23-.4-4.92-.55a70.066 70.066 0 0 1 -5.57 5.37c-5.7 4.86-8.92 5.61-8.92 5.61 5.47.24 10.57.69 15.29 1.31 29.18 3.79 44.3 13.7 49.07 17.41 1.15.9 1.7 1.43 1.7 1.43a26.72 26.72 0 0 0 8.32 2.34c42-17.72 69.21 31.77 69.21 31.77s39.26-34.31 50.1-80.44c.49-2 .91-4.09 1.27-6.16a85.329 85.329 0 0 0 -9.02-10.56z" fill="#f04e23"/><path d="m196.69 55.54c-.36 2.07-.78 4.13-1.27 6.16-10.84 46.13-50.1 80.44-50.1 80.44s-27.26-49.49-69.21-31.77a26.72 26.72 0 0 1 -8.32-2.34s-.55-.53-1.7-1.43c-4.77-3.71-19.89-13.62-49.07-17.41-4.72-.62-9.82-1.07-15.29-1.31-3.12 1.51-1.8 9.64 2.2 9.86 47.46 2.07 64.57 21.35 64.57 21.35 3.51 1.85 10.18 2.8 10.18 2.8 42-17.72 64.86 31.87 64.86 31.87s48.16-36.84 56.74-86c.43-2.35-.92-8.35-3.59-12.22z" fill="#04294f"/><path d="m112.75 19.56c-1.8 6.75-4 13.37-6.39 19.92-1.2 3.28-2.44 6.54-3.78 9.76s-2.68 6.45-4.12 9.63a208.54 208.54 0 0 1 -9.43 18.71 132.546 132.546 0 0 1 -11.71 17.41.5.5 0 0 1 -.83-.54c3.22-6.18 6.4-12.31 9.43-18.52 1.57-3.07 3-6.22 4.54-9.31l4.4-9.39c.74-1.56 1.43-3.15 2.14-4.73s1.44-3.14 2.14-4.72l2.1-4.75c.71-1.59 1.41-3.17 2.09-4.76l8.27-19.11a.6.6 0 0 1 .788-.315l.012.005a.609.609 0 0 1 .35.71z" fill="#04294f"/><path d="m182.31 43.33a1.21 1.21 0 0 0 -1.5.81v.1a178.005 178.005 0 0 1 -6.3 18.26c-1.14 3-2.57 5.91-3.85 8.86s-2.77 5.82-4.32 8.64a192.547 192.547 0 0 1 -9.81 16.64c-3.14 4.78-6.47 9.49-10 13.9-.67-.63-1.33-1.24-2-1.85-1.22-1.08-2.49-2.11-3.79-3.1a72.752 72.752 0 0 0 -8.15-5.39 61 61 0 0 0 -18.35-6.96 53.49 53.49 0 0 0 -19.65-.22 61.983 61.983 0 0 0 -17.89 6.29c-.42-.05-.86-.12-1.29-.2-.61-.11-1.22-.24-1.82-.39a18.53 18.53 0 0 1 -3-1.07 47.46 47.46 0 0 0 -3.95-5 61.779 61.779 0 0 0 -4.87-4.84 71.332 71.332 0 0 0 -11-8.1c-1-.6-2-1.1-3-1.66l-1.5-.81-1.54-.72-3.1-1.43-3.18-1.22-1.58-.61c-.54-.19-1.09-.34-1.62-.51l-3.25-1c-2.18-.62-4.41-1.05-6.6-1.58a1.16 1.16 0 0 0 -.59 2.24h.1c2.12.59 4.27 1.09 6.36 1.76l3.12 1.06c.51.18 1 .34 1.55.54l1.52.63 3 1.27 2.94 1.45 1.47.74 1.42.82c.94.55 1.91 1.06 2.82 1.66a69.506 69.506 0 0 1 10.38 7.9 58.727 58.727 0 0 1 4.54 4.66 44.011 44.011 0 0 1 3.82 5.07 1.818 1.818 0 0 0 .69.63 20.4 20.4 0 0 0 4.09 1.58c.69.18 1.38.35 2.07.49s1.36.25 2.13.34a1.786 1.786 0 0 0 1-.19 58.389 58.389 0 0 1 17.32-6.07 53.584 53.584 0 0 1 9.13-.69 54.429 54.429 0 0 1 9.09 1 60.589 60.589 0 0 1 17.16 6.49 69.13 69.13 0 0 1 7.74 5.07 58.068 58.068 0 0 1 6.88 6l.08.08a1.063 1.063 0 0 0 .16.14 1.89 1.89 0 0 0 2.65-.26 165.665 165.665 0 0 0 11.51-16q5.28-8.3 9.71-17.09c1.53-2.9 2.85-5.9 4.26-8.86l1.9-4.54c.65-1.5 1.23-3 1.79-4.57a162.055 162.055 0 0 0 5.83-18.76 1.22 1.22 0 0 0 -.73-1.43z" fill="#04294f"/><path d="m186.39 51.49a.479.479 0 0 0 -.615.287v.013l-1.66 4.9-.81 2.45-.92 2.4-1.85 4.81-2.06 4.71-1 2.35-1.12 2.31c-.76 1.53-1.48 3.08-2.27 4.6-1.63 3-3.18 6.06-5 9a204.94 204.94 0 0 1 -11.17 17.2l-3.06 4.12c-1.06 1.34-2.1 2.7-3.18 4-1.71 2.12-3.47 4.23-5.28 6.23a70.236 70.236 0 0 0 -7.21-7.13 72.1 72.1 0 0 0 -9.92-7.2 57.723 57.723 0 0 0 -11.07-5.19l-2.92-.94c-1-.25-2-.46-3-.7l-1.49-.33-1.51-.2-3-.38a.6.6 0 1 0 -.2 1.19l2.9.65 1.44.32 1.41.44c.94.3 1.88.57 2.81.89l2.74 1.1a60.126 60.126 0 0 1 10.305 5.61 77.952 77.952 0 0 1 9.22 7.28c1.43 1.34 2.83 2.71 4.16 4.15s2.64 2.92 3.77 4.38a1.529 1.529 0 0 0 .17.19 1.851 1.851 0 0 0 2.61 0 150.028 150.028 0 0 0 13.45-16.14 161.96 161.96 0 0 0 11.31-17.62c1.72-3 3.24-6.2 4.76-9.34.73-1.59 1.39-3.21 2.08-4.81l1-2.41c.32-.81.6-1.64.9-2.46l1.77-4.93 1.46-5c.24-.84.5-1.67.72-2.51l.56-2.56c.38-1.7.71-3.41 1.07-5.11a.49.49 0 0 0 -.3-.62z" fill="#04294f"/><path d="m22.83 77.09a36.058 36.058 0 0 1 7.2.34 44.909 44.909 0 0 1 7 1.54 37.929 37.929 0 0 1 6.7 2.68 25.482 25.482 0 0 1 5.94 4.2.519.519 0 0 1 0 .73.548.548 0 0 1 -.47.14c-2.4-.47-4.61-1.15-6.83-1.81s-4.37-1.42-6.55-2.15l-6.58-2.15c-2.2-.73-4.43-1.44-6.66-2.32a.62.62 0 0 1 .19-1.2z" fill="#04294f"/><path d="m124.06 45.94a6 6 0 0 0 -1.41-2.1 5.706 5.706 0 0 0 -1.31-.94 5.629 5.629 0 0 0 -1.6-.51 6.249 6.249 0 0 0 -2.75.24 8.868 8.868 0 0 0 -1.8.89 10.408 10.408 0 0 0 -2.36 2.18 12.836 12.836 0 0 0 -2.57 5.12 1.176 1.176 0 0 0 0 .69 1.14 1.14 0 0 0 1.467.669l.023-.009a44.6 44.6 0 0 0 4.23-2c1.32-.65 2.36-.57 2.9.71a22.992 22.992 0 0 0 2 4.05 1.025 1.025 0 0 0 .22.24 1 1 0 0 0 1.409-.127c.014-.017.028-.035.041-.053a8.856 8.856 0 0 0 1.42-2.65 9.973 9.973 0 0 0 .57-2.93 8.23 8.23 0 0 0 -.48-3.47z" fill="#04294f"/><path d="m155.57 55.14a7 7 0 0 0 -2.88-3.9 6.656 6.656 0 0 0 -1.84-.77 7.308 7.308 0 0 0 -3.27 0 9.7 9.7 0 0 0 -2.21.86 12.646 12.646 0 0 0 -3 2.31 15.218 15.218 0 0 0 -3.56 5.76 1.309 1.309 0 0 0 0 .83 1.37 1.37 0 0 0 1.69.94 50.426 50.426 0 0 0 5.19-1.93c1.63-.62 2.85-.42 3.35 1.15a27.262 27.262 0 0 0 1.95 5 1.338 1.338 0 0 0 .23.3 1.231 1.231 0 0 0 1.73-.05 10.563 10.563 0 0 0 2-3 12.27 12.27 0 0 0 1-3.4 9.586 9.586 0 0 0 -.38-4.1z" fill="#04294f"/><path d="m29.69 58.29c-1 1-1.91 2-2.88 2.93 12.41 1.89 35 8.47 44.48 25.08.62-1.11 1.25-2.27 1.9-3.45-10.94-17.01-33.61-22.8-43.5-24.56z" fill="#fff"/><path d="m145.29 74.52a8 8 0 0 0 -10.05-5l-2.76.92a20.071 20.071 0 0 1 -2.48.69 10.562 10.562 0 0 1 -1.88.12 16.7 16.7 0 0 1 -3.85-.48 25.734 25.734 0 0 1 -3-1 6.449 6.449 0 0 1 -3.84-3.89 6.594 6.594 0 0 0 -.25-.75.678.678 0 0 0 -.13-.27 6.3 6.3 0 0 0 -2.76-2.93 6.167 6.167 0 0 0 -2.1-.69h-.05a6.328 6.328 0 0 0 -2.67.21c-2.46.67-4.48 2.72-5.8 6.3a10.012 10.012 0 0 0 -.5 1.52 8.63 8.63 0 0 0 -.26 1.38c-.06.45-.1.92-.12 1.38a14.125 14.125 0 0 0 .19 2.63 17.689 17.689 0 0 0 3.67 8.12 23.451 23.451 0 0 0 12.23 7.93 24.241 24.241 0 0 0 14.83-.45 21.063 21.063 0 0 0 6.65-3.88 19.192 19.192 0 0 0 4.49-5.66 8 8 0 0 0 .44-6.2z" fill="#04294f"/><g fill="#fff"><path d="m114.27 66.96a3.842 3.842 0 0 0 1.85-.55 6.339 6.339 0 0 0 1.21-.9 1.174 1.174 0 0 0 -.13-.4.678.678 0 0 0 -.13-.27 6.3 6.3 0 0 0 -2.76-2.93 5.845 5.845 0 0 0 -1-.42 3.181 3.181 0 0 0 -.82.46 4 4 0 0 0 -1.35 2 2 2 0 0 0 .79 2.27 4 4 0 0 0 2.34.74z"/><path d="m116.95 69.54a3.917 3.917 0 0 0 .48 2.37 2 2 0 0 0 2.16 1 3.907 3.907 0 0 0 2.15-1.11 3.641 3.641 0 0 0 .88-1.61l-1.32-.46a6.057 6.057 0 0 1 -3.11-2.49c-.15.17-.31.35-.45.53a3.675 3.675 0 0 0 -.79 1.77z"/><path d="m115.28 89.37a6.477 6.477 0 0 0 .54-.63 3.783 3.783 0 0 0 .75-1.78 4 4 0 0 0 -.48-2.37 2 2 0 0 0 -2.16-1 4 4 0 0 0 -2.15 1.11 3.791 3.791 0 0 0 -.91 1.71.829.829 0 0 1 -.07.4 23.944 23.944 0 0 0 4.48 2.56z"/><path d="m106.12 79.48a3.506 3.506 0 0 0 -1.19.75 20.6 20.6 0 0 0 1.68 2.5 23.434 23.434 0 0 0 1.76 1.94 3.417 3.417 0 0 0 1.09-1.08 3.864 3.864 0 0 0 .58-2.34 2 2 0 0 0 -1.51-1.86 3.887 3.887 0 0 0 -2.41.09z"/><path d="m123.56 91.51c.14-.25.28-.49.39-.74a3.757 3.757 0 0 0 .34-1.9 3.93 3.93 0 0 0 -1-2.21 2 2 0 0 0 -2.34-.53 3.931 3.931 0 0 0 -1.85 1.55 3.763 3.763 0 0 0 -.52 1.87 7.52 7.52 0 0 0 .05 1.05l.19.06a25.159 25.159 0 0 0 4.74.85z"/><path d="m131.1 86.63a2 2 0 0 0 -2.34.52 4 4 0 0 0 -1 2.2 3.757 3.757 0 0 0 .34 1.9l.1.22a23.174 23.174 0 0 0 5.25-1.19v-.22a3.86 3.86 0 0 0 -.51-1.87 3.919 3.919 0 0 0 -1.84-1.56z"/><path d="m130.08 71.07h-.08a10.562 10.562 0 0 1 -1.88.12 16.885 16.885 0 0 1 -3.47-.4.965.965 0 0 0 0 .17 3.624 3.624 0 0 0 .05 1.93 3.88 3.88 0 0 0 1.42 1.95 2 2 0 0 0 2.39.05 3.93 3.93 0 0 0 1.49-1.91 3.7 3.7 0 0 0 .08-1.91z"/><path d="m135.24 69.47-2.52.84v.68a3.711 3.711 0 0 0 .59 1.84 3.884 3.884 0 0 0 1.91 1.48 2 2 0 0 0 2.31-.63 3.906 3.906 0 0 0 .9-2.24 3.827 3.827 0 0 0 -.42-1.89c-.08-.16-.17-.32-.26-.48a8.261 8.261 0 0 0 -2.51.4z"/><path d="m69.85 22.16c.42-1.12.83-2.21 1.23-3.29a86.726 86.726 0 0 0 -15.84-2.46c-.48 1.07-1 2.18-1.52 3.32a85.347 85.347 0 0 1 16.13 2.43z"/><path d="m74.36 19.8c-.39 1.08-.8 2.17-1.22 3.28 8.77 2.71 17.32 7.33 22.82 15 .55-1.16 1.09-2.33 1.64-3.5-6.12-7.66-14.76-12.15-23.24-14.78z"/><path d="m89.19 16.71c.41-1.23.79-2.42 1.16-3.57-10-4.57-22.51-6-31-6.5-.41 1-.88 2.17-1.41 3.41 14.66.34 24.62 3.32 31.25 6.66z"/><path d="m93.46 14.7c-.38 1.18-.78 2.41-1.21 3.67 6.66 4 9 8 9.05 8.06l1.58-3.59a27.468 27.468 0 0 0 -9.42-8.14z"/><path d="m70.67 49.82c.52-1.06 1-2.11 1.51-3.16-9.44-5.63-20.24-8-27.71-9.07-.62 1.06-1.25 2.13-1.89 3.19 8.33 1.06 19.09 3.63 28.09 9.04z"/><path d="m45.25 50.24c-2.22-.55-4.3-1-6.14-1.29l-1.62-.26q-1.1 1.571-2.22 3.09c2.41.34 5.1.83 7.94 1.5.68-1.04 1.36-2.04 2.04-3.04z"/><path d="m66.72 63.24c.57-1 1.14-2.06 1.69-3.09a66.756 66.756 0 0 0 -19.7-9.06c-.66 1-1.33 2-2 3a65.6 65.6 0 0 1 20.01 9.15z"/><path d="m69.45 65.35a35.749 35.749 0 0 1 8.08 9.31l1.86-3.49a40.593 40.593 0 0 0 -8.2-8.93q-.87 1.55-1.74 3.11z"/><path d="m59.06 32.8c.5-1.08 1-2.15 1.46-3.21a90.577 90.577 0 0 0 -10.73-1.81c-.55 1.08-1.12 2.16-1.69 3.25a88.052 88.052 0 0 1 10.96 1.77z"/><path d="m70.34 32.59c-2.17-.84-4.35-1.56-6.48-2.15q-.7 1.59-1.44 3.21c2.14.59 4.29 1.29 6.41 2.1.52-1.05 1.02-2.11 1.51-3.16z"/><path d="m73.48 33.9c-.49 1-1 2.1-1.5 3.16 7 3.14 13.36 7.71 17.57 14.29.57-1.17 1.15-2.33 1.73-3.51-4.66-6.47-11.09-10.89-17.8-13.94z"/><path d="m127.03 33.24a42.509 42.509 0 0 1 11.27.39c.27-1.11.53-2.2.77-3.28a45.381 45.381 0 0 0 -12.38-.51 47.047 47.047 0 0 0 -10 2.1c-.45 1.36-.91 2.74-1.39 4.14a43.428 43.428 0 0 1 11.73-2.84z"/><path d="m142.4 31.11c-.24 1.07-.5 2.15-.77 3.26 10.21 2.54 20.12 8.85 29.62 18.88.44-1.22.85-2.42 1.25-3.6-10.75-10.95-21.11-16.27-30.1-18.54z"/><path d="m132.71 22.45c9.86-.76 19.5 1.8 28.81 7.6.3-1.18.57-2.32.83-3.43-11.72-7-22.27-8.19-30.09-7.56a47.616 47.616 0 0 0 -12.24 2.66c-.42 1.34-.86 2.75-1.33 4.22a43.689 43.689 0 0 1 14.02-3.49z"/><path d="m165.4 28.55c-.28 1.12-.56 2.28-.87 3.48a80.152 80.152 0 0 1 10.62 9c.37-1.29.71-2.56 1-3.77a78.259 78.259 0 0 0 -10.75-8.71z"/></g></svg></g><!--ITEM: Illustration component 18--><g transform="translate(2127.5 300.0) rotate(0.1492422946763263 100.0 97.5)  scale(1.5536273314120144 1.5807905574110706)"><svg width="128.731" height="123.356" viewBox="0.0 0.0 128.731 123.356"><path d="m128.591 120.443-4.6-13.9c0 3.3-1.3 10.1-11.5 12.7l13.3 4a2.076 2.076 0 0 0 2.7-1.5 1.23 1.23 0 0 0 .1-1.3z" fill="rgb(240,78,35)"/><path d="m123.991 106.443-1-3.2a20.459 20.459 0 0 0 -5.6-8.8l-.5-.5c.1 4.4-1.4 15-17.1 18.7l.5.5a21.9 21.9 0 0 0 8.6 5l3.7 1.1c10.2-2.7 11.4-9.6 11.4-12.8z" fill="#fff"/><path d="m116.891 93.943-75.1-71.2c0 4.7-1.8 14.9-17 18.7l75 71.1c15.7-3.6 17.2-14.1 17.1-18.6z" fill="#00acdc"/><path d="m41.791 22.743-12-11.3c.1 4.3-1.1 15.1-16.5 19.2l11.5 10.9c15.2-3.8 17-14.1 17-18.8z" fill="#fff"/><path d="m29.791 11.443-6.5-6.2s-10.4-10.8-19.7-1.4 2.4 19.8 2.4 19.8l7.3 6.9c15.4-3.9 16.6-14.8 16.5-19.1z" fill="#f04e23"/><g fill="#10294c"><path d="m117.891 97.443a1.561 1.561 0 0 0 -.8-1.3 1.471 1.471 0 0 0 -1.9.7v.1a25.487 25.487 0 0 1 -2.3 4.3 20.468 20.468 0 0 1 -3 3.5 21.235 21.235 0 0 1 -3.8 2.9c-1.4.9-2.8 1.7-4.3 2.6h-.1a1.577 1.577 0 0 0 -.5 2.1 1.42 1.42 0 0 0 1.4.7 18.617 18.617 0 0 0 5.6-1.5 18.086 18.086 0 0 0 5-3.3 14.6 14.6 0 0 0 3.5-5 12.586 12.586 0 0 0 1.2-5.8z"/><path d="m29.791 20.743a13.372 13.372 0 0 0 1-5.9 1.453 1.453 0 0 0 -1.5-1.4 1.4 1.4 0 0 0 -1.2.9v.1a25.826 25.826 0 0 1 -2.2 4.4 19.9 19.9 0 0 1 -2.9 3.6 26.726 26.726 0 0 1 -3.6 3.1c-1.3.9-2.8 1.8-4.3 2.8h-.1a1.622 1.622 0 0 0 -.7 1.4 1.553 1.553 0 0 0 1.7 1.3 19.039 19.039 0 0 0 5.6-1.7 19.024 19.024 0 0 0 4.9-3.5 13.216 13.216 0 0 0 3.3-5.1z"/><path d="m38.691 36.443a15.85 15.85 0 0 0 3.3-5.2 13.513 13.513 0 0 0 .9-6 1.423 1.423 0 0 0 -1.5-1.3 1.4 1.4 0 0 0 -1.2.9v.1a45.382 45.382 0 0 1 -2.1 4.5 25.667 25.667 0 0 1 -2.8 3.7 26.726 26.726 0 0 1 -3.6 3.1c-1.3 1-2.8 1.8-4.3 2.8h-.1a1.48 1.48 0 0 0 -.4 2.1 1.683 1.683 0 0 0 1.5.7 18.355 18.355 0 0 0 5.6-1.8 19.638 19.638 0 0 0 4.7-3.6z"/><path d="m124.891 109.843a1.231 1.231 0 0 0 -.5-1 1.55 1.55 0 0 0 -2.1.2l-.1.1c-.7.8-1.2 1.5-1.8 2.2a14.877 14.877 0 0 1 -1.7 1.8c-.6.6-1.2 1.2-1.9 1.8s-1.4 1.2-2.2 1.9l-.1.1a1.606 1.606 0 0 0 -.5 1.1 1.5 1.5 0 0 0 1.6 1.5 8.525 8.525 0 0 0 3.5-.8 10.185 10.185 0 0 0 3-2.1 8.915 8.915 0 0 0 2.8-6.8z"/></g></svg></g></svg>